<?xml version="1.0" standalone="no"?>
<!DOCTYPE svg PUBLIC "-//W3C//DTD SVG 20010904//EN"
 "http://www.w3.org/TR/2001/REC-SVG-20010904/DTD/svg10.dtd">
<svg version="1.0" xmlns="http://www.w3.org/2000/svg"
 width="344.000000pt" height="344.000000pt" viewBox="0 0 344.000000 344.000000"
 preserveAspectRatio="xMidYMid meet">
<metadata>
Created by potrace 1.16, written by Peter Selinger 2001-2019
</metadata>
<g transform="translate(0.000000,344.000000) scale(0.100000,-0.100000)"
fill="#000000" stroke="none">
<path d="M1556 3299 c-362 -38 -715 -208 -968 -466 -482 -492 -592 -1229 -276
-1844 212 -413 611 -719 1067 -819 212 -47 471 -47 684 0 599 132 1075 608
1207 1209 33 148 45 323 31 469 -21 229 -64 381 -166 587 -289 584 -927 933
-1579 864z m224 -814 l0 -125 28 -5 c220 -47 366 -161 428 -337 l13 -38 -72 0
-72 0 -31 58 c-60 113 -179 180 -334 189 -249 15 -430 -133 -477 -390 -56
-313 111 -589 378 -627 62 -9 172 0 234 18 94 28 180 100 212 177 l18 45 69 0
69 0 -7 -32 c-12 -59 -51 -123 -111 -183 -79 -78 -180 -128 -307 -149 l-38 -7
0 -124 0 -125 -60 0 -60 0 0 124 0 123 -51 7 c-66 9 -170 48 -231 87 -69 44
-161 148 -197 221 -97 198 -96 478 1 661 82 154 256 276 431 302 l47 7 0 124
0 124 60 0 60 0 0 -125z"/>
</g>
</svg>
